<svg width="225" height="94" viewBox="0 0 225 94" fill="none" xmlns="http://www.w3.org/2000/svg">
<path d="M25.5508 33H22.1582L9.27344 13.2773V33H5.88086V7.40625H9.27344L22.1934 27.2168V7.40625H25.5508V33ZM30.1738 23.3145C30.1738 21.4512 30.5371 19.7754 31.2637 18.2871C32.002 16.7988 33.0215 15.6504 34.3223 14.8418C35.6348 14.0332 37.1289 13.6289 38.8047 13.6289C41.3945 13.6289 43.4863 14.5254 45.0801 16.3184C46.6855 18.1113 47.4883 20.4961 47.4883 23.4727V23.7012C47.4883 25.5527 47.1309 27.2168 46.416 28.6934C45.7129 30.1582 44.6992 31.3008 43.375 32.1211C42.0625 32.9414 40.5508 33.3516 38.8398 33.3516C36.2617 33.3516 34.1699 32.4551 32.5645 30.6621C30.9707 28.8691 30.1738 26.4961 30.1738 23.543V23.3145ZM33.4434 23.7012C33.4434 25.8105 33.9297 27.5039 34.9023 28.7812C35.8867 30.0586 37.1992 30.6973 38.8398 30.6973C40.4922 30.6973 41.8047 30.0527 42.7773 28.7637C43.75 27.4629 44.2363 25.6465 44.2363 23.3145C44.2363 21.2285 43.7383 19.541 42.7422 18.252C41.7578 16.9512 40.4453 16.3008 38.8047 16.3008C37.1992 16.3008 35.9043 16.9395 34.9199 18.2168C33.9355 19.4941 33.4434 21.3223 33.4434 23.7012ZM55.9785 9.375V13.9805H59.5293V16.4941H55.9785V28.2891C55.9785 29.0508 56.1367 29.625 56.4531 30.0117C56.7695 30.3867 57.3086 30.5742 58.0703 30.5742C58.4453 30.5742 58.9609 30.5039 59.6172 30.3633V33C58.7617 33.2344 57.9297 33.3516 57.1211 33.3516C55.668 33.3516 54.5723 32.9121 53.834 32.0332C53.0957 31.1543 52.7266 29.9062 52.7266 28.2891V16.4941H49.2637V13.9805H52.7266V9.375H55.9785ZM71.2363 33.3516C68.6582 33.3516 66.5605 32.5078 64.9434 30.8203C63.3262 29.1211 62.5176 26.8535 62.5176 24.0176V23.4199C62.5176 21.5332 62.875 19.8516 63.5898 18.375C64.3164 16.8867 65.3242 15.7266 66.6133 14.8945C67.9141 14.0508 69.3203 13.6289 70.832 13.6289C73.3047 13.6289 75.2266 14.4434 76.5977 16.0723C77.9688 17.7012 78.6543 20.0332 78.6543 23.0684V24.4219H65.7695C65.8164 26.2969 66.3613 27.8145 67.4043 28.9746C68.459 30.123 69.7949 30.6973 71.4121 30.6973C72.5605 30.6973 73.5332 30.4629 74.3301 29.9941C75.127 29.5254 75.8242 28.9043 76.4219 28.1309L78.4082 29.6777C76.8145 32.127 74.4238 33.3516 71.2363 33.3516ZM70.832 16.3008C69.5195 16.3008 68.418 16.7812 67.5273 17.7422C66.6367 18.6914 66.0859 20.0273 65.875 21.75H75.4023V21.5039C75.3086 19.8516 74.8633 18.5742 74.0664 17.6719C73.2695 16.7578 72.1914 16.3008 70.832 16.3008ZM98.5 23.7012C98.5 26.5957 97.8379 28.9277 96.5137 30.6973C95.1895 32.4668 93.3965 33.3516 91.1348 33.3516C88.8262 33.3516 87.0098 32.6191 85.6855 31.1543V40.3125H82.4336V13.9805H85.4043L85.5625 16.0898C86.8867 14.4492 88.7266 13.6289 91.082 13.6289C93.3672 13.6289 95.1719 14.4902 96.4961 16.2129C97.832 17.9355 98.5 20.332 98.5 23.4023V23.7012ZM95.248 23.332C95.248 21.1875 94.791 19.4941 93.877 18.252C92.9629 17.0098 91.709 16.3887 90.1152 16.3887C88.1465 16.3887 86.6699 17.2617 85.6855 19.0078V28.0957C86.6582 29.8301 88.1465 30.6973 90.1504 30.6973C91.709 30.6973 92.9453 30.082 93.8594 28.8516C94.7852 27.6094 95.248 25.7695 95.248 23.332ZM114.391 33C114.203 32.625 114.051 31.957 113.934 30.9961C112.422 32.5664 110.617 33.3516 108.52 33.3516C106.645 33.3516 105.104 32.8242 103.896 31.7695C102.701 30.7031 102.104 29.3555 102.104 27.7266C102.104 25.7461 102.854 24.2109 104.354 23.1211C105.865 22.0195 107.986 21.4688 110.717 21.4688H113.881V19.9746C113.881 18.8379 113.541 17.9355 112.861 17.2676C112.182 16.5879 111.18 16.248 109.855 16.248C108.695 16.248 107.723 16.541 106.938 17.127C106.152 17.7129 105.76 18.4219 105.76 19.2539H102.49C102.49 18.3047 102.824 17.3906 103.492 16.5117C104.172 15.6211 105.086 14.918 106.234 14.4023C107.395 13.8867 108.666 13.6289 110.049 13.6289C112.24 13.6289 113.957 14.1797 115.199 15.2812C116.441 16.3711 117.086 17.877 117.133 19.7988V28.5527C117.133 30.2988 117.355 31.6875 117.801 32.7188V33H114.391ZM108.994 30.5215C110.014 30.5215 110.98 30.2578 111.895 29.7305C112.809 29.2031 113.471 28.5176 113.881 27.6738V23.7715H111.332C107.348 23.7715 105.355 24.9375 105.355 27.2695C105.355 28.2891 105.695 29.0859 106.375 29.6602C107.055 30.2344 107.928 30.5215 108.994 30.5215ZM121.439 23.332C121.439 20.4141 122.131 18.0703 123.514 16.3008C124.896 14.5195 126.707 13.6289 128.945 13.6289C131.172 13.6289 132.936 14.3906 134.236 15.9141V6H137.488V33H134.5L134.342 30.9609C133.041 32.5547 131.23 33.3516 128.91 33.3516C126.707 33.3516 124.908 32.4492 123.514 30.6445C122.131 28.8398 121.439 26.4844 121.439 23.5781V23.332ZM124.691 23.7012C124.691 25.8574 125.137 27.5449 126.027 28.7637C126.918 29.9824 128.148 30.5918 129.719 30.5918C131.781 30.5918 133.287 29.666 134.236 27.8145V19.0781C133.264 17.2852 131.77 16.3887 129.754 16.3887C128.16 16.3887 126.918 17.0039 126.027 18.2344C125.137 19.4648 124.691 21.2871 124.691 23.7012Z" fill="#F3F8F2"/>
<path d="M10.9688 57.4062L19.3359 78.2891L27.7031 57.4062H32.0801V83H28.7051V73.0332L29.0215 62.2754L20.6191 83H18.0352L9.65039 62.3281L9.98438 73.0332V83H6.60938V57.4062H10.9688ZM49.2715 81.1191C48.0059 82.6074 46.1484 83.3516 43.6992 83.3516C41.6719 83.3516 40.125 82.7656 39.0586 81.5938C38.0039 80.4102 37.4707 78.6641 37.459 76.3555V63.9805H40.7109V76.2676C40.7109 79.1504 41.8828 80.5918 44.2266 80.5918C46.7109 80.5918 48.3633 79.666 49.1836 77.8145V63.9805H52.4355V83H49.3418L49.2715 81.1191ZM60.9258 83H57.6738V56H60.9258V83ZM70.5586 59.375V63.9805H74.1094V66.4941H70.5586V78.2891C70.5586 79.0508 70.7168 79.625 71.0332 80.0117C71.3496 80.3867 71.8887 80.5742 72.6504 80.5742C73.0254 80.5742 73.541 80.5039 74.1973 80.3633V83C73.3418 83.2344 72.5098 83.3516 71.7012 83.3516C70.248 83.3516 69.1523 82.9121 68.4141 82.0332C67.6758 81.1543 67.3066 79.9062 67.3066 78.2891V66.4941H63.8438V63.9805H67.3066V59.375H70.5586ZM81.457 83H78.2051V63.9805H81.457V83ZM77.9414 58.9355C77.9414 58.4082 78.0996 57.9629 78.416 57.5996C78.7441 57.2363 79.2246 57.0547 79.8574 57.0547C80.4902 57.0547 80.9707 57.2363 81.2988 57.5996C81.627 57.9629 81.791 58.4082 81.791 58.9355C81.791 59.4629 81.627 59.9023 81.2988 60.2539C80.9707 60.6055 80.4902 60.7812 79.8574 60.7812C79.2246 60.7812 78.7441 60.6055 78.416 60.2539C78.0996 59.9023 77.9414 59.4629 77.9414 58.9355ZM102.744 73.7012C102.744 76.5957 102.082 78.9277 100.758 80.6973C99.4336 82.4668 97.6406 83.3516 95.3789 83.3516C93.0703 83.3516 91.2539 82.6191 89.9297 81.1543V90.3125H86.6777V63.9805H89.6484L89.8066 66.0898C91.1309 64.4492 92.9707 63.6289 95.3262 63.6289C97.6113 63.6289 99.416 64.4902 100.74 66.2129C102.076 67.9355 102.744 70.332 102.744 73.4023V73.7012ZM99.4922 73.332C99.4922 71.1875 99.0352 69.4941 98.1211 68.252C97.207 67.0098 95.9531 66.3887 94.3594 66.3887C92.3906 66.3887 90.9141 67.2617 89.9297 69.0078V78.0957C90.9023 79.8301 92.3906 80.6973 94.3945 80.6973C95.9531 80.6973 97.1895 80.082 98.1035 78.8516C99.0293 77.6094 99.4922 75.7695 99.4922 73.332ZM110.426 83H107.174V56H110.426V83ZM127.389 83C127.201 82.625 127.049 81.957 126.932 80.9961C125.42 82.5664 123.615 83.3516 121.518 83.3516C119.643 83.3516 118.102 82.8242 116.895 81.7695C115.699 80.7031 115.102 79.3555 115.102 77.7266C115.102 75.7461 115.852 74.2109 117.352 73.1211C118.863 72.0195 120.984 71.4688 123.715 71.4688H126.879V69.9746C126.879 68.8379 126.539 67.9355 125.859 67.2676C125.18 66.5879 124.178 66.248 122.854 66.248C121.693 66.248 120.721 66.541 119.936 67.127C119.15 67.7129 118.758 68.4219 118.758 69.2539H115.488C115.488 68.3047 115.822 67.3906 116.49 66.5117C117.17 65.6211 118.084 64.918 119.232 64.4023C120.393 63.8867 121.664 63.6289 123.047 63.6289C125.238 63.6289 126.955 64.1797 128.197 65.2812C129.439 66.3711 130.084 67.877 130.131 69.7988V78.5527C130.131 80.2988 130.354 81.6875 130.799 82.7188V83H127.389ZM121.992 80.5215C123.012 80.5215 123.979 80.2578 124.893 79.7305C125.807 79.2031 126.469 78.5176 126.879 77.6738V73.7715H124.33C120.346 73.7715 118.354 74.9375 118.354 77.2695C118.354 78.2891 118.693 79.0859 119.373 79.6602C120.053 80.2344 120.926 80.5215 121.992 80.5215ZM139.641 59.375V63.9805H143.191V66.4941H139.641V78.2891C139.641 79.0508 139.799 79.625 140.115 80.0117C140.432 80.3867 140.971 80.5742 141.732 80.5742C142.107 80.5742 142.623 80.5039 143.279 80.3633V83C142.424 83.2344 141.592 83.3516 140.783 83.3516C139.33 83.3516 138.234 82.9121 137.496 82.0332C136.758 81.1543 136.389 79.9062 136.389 78.2891V66.4941H132.926V63.9805H136.389V59.375H139.641ZM148.605 83V66.4941H145.6V63.9805H148.605V62.0293C148.605 59.9902 149.15 58.4141 150.24 57.3008C151.33 56.1875 152.871 55.6309 154.863 55.6309C155.613 55.6309 156.357 55.7305 157.096 55.9297L156.92 58.5664C156.369 58.4609 155.783 58.4082 155.162 58.4082C154.107 58.4082 153.293 58.7188 152.719 59.3398C152.145 59.9492 151.857 60.8281 151.857 61.9766V63.9805H155.918V66.4941H151.857V83H148.605ZM158.66 73.3145C158.66 71.4512 159.023 69.7754 159.75 68.2871C160.488 66.7988 161.508 65.6504 162.809 64.8418C164.121 64.0332 165.615 63.6289 167.291 63.6289C169.881 63.6289 171.973 64.5254 173.566 66.3184C175.172 68.1113 175.975 70.4961 175.975 73.4727V73.7012C175.975 75.5527 175.617 77.2168 174.902 78.6934C174.199 80.1582 173.186 81.3008 171.861 82.1211C170.549 82.9414 169.037 83.3516 167.326 83.3516C164.748 83.3516 162.656 82.4551 161.051 80.6621C159.457 78.8691 158.66 76.4961 158.66 73.543V73.3145ZM161.93 73.7012C161.93 75.8105 162.416 77.5039 163.389 78.7812C164.373 80.0586 165.686 80.6973 167.326 80.6973C168.979 80.6973 170.291 80.0527 171.264 78.7637C172.236 77.4629 172.723 75.6465 172.723 73.3145C172.723 71.2285 172.225 69.541 171.229 68.252C170.244 66.9512 168.932 66.3008 167.291 66.3008C165.686 66.3008 164.391 66.9395 163.406 68.2168C162.422 69.4941 161.93 71.3223 161.93 73.7012ZM189.246 66.8984C188.754 66.8164 188.221 66.7754 187.646 66.7754C185.514 66.7754 184.066 67.6836 183.305 69.5V83H180.053V63.9805H183.217L183.27 66.1777C184.336 64.4785 185.848 63.6289 187.805 63.6289C188.438 63.6289 188.918 63.7109 189.246 63.875V66.8984ZM195.311 63.9805L195.398 66.0898C196.793 64.4492 198.674 63.6289 201.041 63.6289C203.701 63.6289 205.512 64.6484 206.473 66.6875C207.105 65.7734 207.926 65.0352 208.934 64.4727C209.953 63.9102 211.154 63.6289 212.537 63.6289C216.709 63.6289 218.83 65.8379 218.9 70.2559V83H215.648V70.4492C215.648 69.0898 215.338 68.0762 214.717 67.4082C214.096 66.7285 213.053 66.3887 211.588 66.3887C210.381 66.3887 209.379 66.752 208.582 67.4785C207.785 68.1934 207.322 69.1602 207.193 70.3789V83H203.924V70.5371C203.924 67.7715 202.57 66.3887 199.863 66.3887C197.73 66.3887 196.271 67.2969 195.486 69.1133V83H192.234V63.9805H195.311Z" fill="#F6644D"/>
</svg>
